<?xml version="1.0" encoding="UTF-8"?>
<svg width="374px" height="72px" viewBox="0 0 374 72" version="1.1" xmlns="http://www.w3.org/2000/svg" xmlns:xlink="http://www.w3.org/1999/xlink">
    <!-- Generator: Sketch 52.2 (67145) - http://www.bohemiancoding.com/sketch -->
    <title>logo</title>
    <desc>Created with Sketch.</desc>
    <g id="Page-1" stroke="none" stroke-width="1" fill="none" fill-rule="evenodd">
        <g id="logo">
            <path d="M113.787736,44.3562761 L122.644043,44.3562761 L122.644043,25.4118537 C124.217202,24.2099417 126.373013,23.0652636 128.645355,23.0652636 C129.868923,23.0652636 130.917697,23.408667 131.675144,24.2671756 C132.374327,25.0684502 132.665652,26.0986606 132.665652,28.216315 L132.665652,44.3562761 L141.521958,44.3562761 L141.521958,26.7854674 C141.521958,22.7218602 140.764511,20.2608022 139.016556,18.4293173 C137.210335,16.5978324 134.530137,15.5676221 131.500349,15.5676221 C127.887908,15.5676221 124.858119,17.0557036 122.644043,18.8299546 L122.527512,18.7727207 L122.527512,16.197195 L113.787736,16.197195 L113.787736,44.3562761 Z M155.796926,30.2767356 C155.796926,26.2703622 158.88498,23.0652636 162.905277,23.0652636 C166.925574,23.0652636 170.013628,26.2703622 170.013628,30.2767356 C170.013628,34.2831089 166.925574,37.4882075 162.905277,37.4882075 C158.88498,37.4882075 155.796926,34.2831089 155.796926,30.2767356 Z M146.940619,30.2767356 C146.940619,38.5756517 153.757645,44.9858491 162.905277,44.9858491 C172.052909,44.9858491 178.869934,38.5756517 178.869934,30.2767356 C178.869934,21.9778194 172.052909,15.5676221 162.905277,15.5676221 C153.757645,15.5676221 146.940619,21.9778194 146.940619,30.2767356 Z M189.066339,42.1813877 C190.87256,44.0701066 193.611023,44.9858491 196.524282,44.9858491 C199.029684,44.9858491 201.651618,44.2990422 202.991716,43.4405336 L202.991716,36.5152312 C201.826413,37.0875702 200.194988,37.6599093 198.738359,37.6599093 C196.058161,37.6599093 195.417244,35.5994887 195.417244,32.8522613 L195.417244,23.408667 L202.991716,23.408667 L202.991716,16.197195 L195.417244,16.197195 L195.417244,7.3831737 L186.560937,8.87125521 L186.560937,16.197195 L181.899723,16.197195 L181.899723,23.408667 L186.560937,23.408667 L186.560937,33.7680037 C186.560937,38.2322484 187.551445,40.5788384 189.066339,42.1813877 Z M207.594665,7.26870589 C207.594665,10.0159333 209.925272,12.2480556 212.722,12.2480556 C215.518729,12.2480556 217.849335,10.0159333 217.849335,7.26870589 C217.849335,4.52147847 215.518729,2.28935619 212.722,2.28935619 C209.925272,2.28935619 207.594665,4.52147847 207.594665,7.26870589 Z M208.293847,44.3562761 L217.150154,44.3562761 L217.150154,16.197195 L208.293847,16.197195 L208.293847,44.3562761 Z M226.064725,44.3562761 L234.921031,44.3562761 L234.921031,23.408667 L241.563261,23.408667 L241.563261,16.197195 L234.921031,16.197195 L234.921031,11.4467809 C234.921031,9.04295694 235.503683,7.32593979 238.242146,7.32593979 C239.232654,7.32593979 240.980609,7.55487542 242.087647,7.84104494 L242.087647,0.801274666 C240.514488,0.228935619 238.824798,0 237.193373,0 C234.33838,0 231.133795,0.686806856 229.094514,2.63275961 C226.880438,4.69318018 226.064725,8.06998055 226.064725,12.01912 L226.064725,16.197195 L221.986163,16.197195 L221.986163,23.408667 L226.064725,23.408667 L226.064725,44.3562761 Z M245.700089,7.26870589 C245.700089,10.0159333 248.030695,12.2480556 250.827424,12.2480556 C253.624152,12.2480556 255.954758,10.0159333 255.954758,7.26870589 C255.954758,4.52147847 253.624152,2.28935619 250.827424,2.28935619 C248.030695,2.28935619 245.700089,4.52147847 245.700089,7.26870589 Z M246.39927,44.3562761 L255.255577,44.3562761 L255.255577,16.197195 L246.39927,16.197195 L246.39927,44.3562761 Z M260.849034,30.3339695 C260.849034,38.8045873 267.607793,44.9858491 276.813691,44.9858491 C280.07654,44.9858491 283.45592,44.2990422 286.194384,42.8109606 L286.194384,34.798214 C283.805512,36.5724651 280.600927,37.6026754 277.804199,37.6026754 C273.026455,37.6026754 269.705339,34.5692784 269.705339,30.2767356 C269.705339,26.0414266 272.96819,22.8935619 277.687668,22.8935619 C280.426131,22.8935619 283.22286,23.9237721 285.786528,25.5263215 L285.786528,17.4563409 C283.45592,16.3116628 280.484397,15.5676221 277.279812,15.5676221 C268.306975,15.5676221 260.849034,21.4627143 260.849034,30.3339695 Z M300.585882,44.9858491 C303.848731,44.9858491 306.703725,43.9556388 308.56821,42.639259 L308.684741,42.639259 C310.2579,44.2418083 312.530242,44.8713812 314.860849,44.8713812 C316.550539,44.8713812 318.123699,44.5279778 319.114207,44.0128727 L319.114207,37.4882075 C318.648086,37.7171432 318.123699,37.831611 317.657577,37.831611 C316.434009,37.831611 315.909622,36.9158685 315.909622,35.5994887 L315.909622,26.0414266 C315.909622,22.4929245 314.860849,19.9746328 312.705038,18.2576156 C310.432696,16.4261306 306.995051,15.5676221 303.149549,15.5676221 C298.954457,15.5676221 295.458546,16.5978324 293.12794,17.7425104 L293.12794,25.2401519 C295.400281,24.03824 298.31354,23.0080297 301.518124,23.0080297 C303.615671,23.0080297 305.130565,23.4659009 305.946277,24.2099417 C306.587194,24.7822807 307.053316,25.812491 307.053316,27.1861047 L307.053316,28.2735489 C305.480156,27.9301454 303.790466,27.7584437 302.100776,27.7584437 C299.129252,27.7584437 296.274259,28.2735489 294.060182,29.7616304 C292.020902,31.1352441 290.564272,33.4818343 290.564272,36.5724651 C290.564272,39.4913942 291.846106,41.7235165 293.943651,43.1543641 C295.808138,44.41351 298.138744,44.9858491 300.585882,44.9858491 Z M303.033019,38.5756517 C300.993738,38.5756517 299.362313,37.6026754 299.362313,35.7711904 C299.362313,33.5963021 301.634654,32.9094952 303.906996,32.9094952 C304.839239,32.9094952 306.121073,33.023963 307.053316,33.3101325 L307.053316,37.4309736 C306.004543,38.0605466 304.547913,38.5756517 303.033019,38.5756517 Z M323.717155,44.3562761 L332.573462,44.3562761 L332.573462,27.3005725 C334.671008,24.8967485 337.234675,23.981006 340.32273,23.981006 C341.138442,23.981006 342.01242,24.0954739 342.711602,24.2671756 L342.711602,16.0827272 C342.070685,15.9110255 341.429768,15.8537916 340.847117,15.8537916 C337.292941,15.8537916 334.496212,17.2846392 332.515197,20.0318667 L332.398667,19.9746328 L332.398667,16.197195 L323.717155,16.197195 L323.717155,44.3562761 Z M373.825204,32.5660917 C373.941735,31.822051 374,30.5629051 374,29.5899287 C374,20.1463345 367.357771,15.5676221 360.307684,15.5676221 C352.38362,15.5676221 345.27527,21.4054804 345.27527,30.3912034 C345.27527,39.2052247 352.092295,44.9858491 361.531253,44.9858491 C365.318489,44.9858491 369.630112,44.1273405 372.42684,42.4103234 L372.42684,35.1416175 C369.397051,37.1448041 365.901141,38.2322484 362.696557,38.2322484 C358.617994,38.2322484 355.355145,36.4579973 354.364637,32.5660917 L373.825204,32.5660917 Z M360.191154,22.206755 C363.046148,22.206755 365.318489,24.03824 365.842876,27.0716369 L354.306371,27.0716369 C355.063819,23.8665382 357.452691,22.206755 360.191154,22.206755 Z" id="Shape" fill="#000000" fill-rule="nonzero"></path>
            <path d="M56.4528302,56.4528302 C58.9892565,56.4528302 61.4476237,56.1181611 63.786173,55.4905756 L50.7153083,42.3396226 L67.6194951,59.3462332 C70.3721179,62.1145039 70.3721179,66.6054117 67.6194951,69.3719102 C64.868634,72.1401809 60.4063022,72.1401809 57.655441,69.3719102 L44.8129623,56.4528302 L56.4528302,56.4528302 Z" id="Path" fill="#10D1C4"></path>
            <path d="M50.7153083,42.3396226 L63.786173,55.4905756 C61.4476237,56.1181611 58.9892565,56.4528302 56.4528302,56.4528302 L44.8129623,56.4528302 L31.4953949,43.0556158 C31.2690192,42.8278803 31.062022,42.5886252 30.8726415,42.3396226 L50.7153083,42.3396226 Z" id="Path" fill="#000000"></path>
            <path d="M50.7153083,42.3396226 L63.786173,55.4905756 C61.4476237,56.1181611 58.9892565,56.4528302 56.4528302,56.4528302 L44.8129623,56.4528302 L31.4953949,43.0556158 C31.2690192,42.8278803 31.062022,42.5886252 30.8726415,42.3396226 L50.7153083,42.3396226 Z" id="Path" fill="#10D1C4" opacity="0.6"></path>
            <path d="M56.9575525,56.4484068 L57.2319372,56.4422818 C57.3131215,56.4400809 57.3942203,56.4375372 57.4752323,56.4346519 L57.2311558,56.442303 C57.3990947,56.4377549 57.566668,56.4317394 57.7338632,56.424269 L57.4752323,56.4346519 C57.6796505,56.4273716 57.8835155,56.4179168 58.0868051,56.40631 L57.7338632,56.424269 C57.9040641,56.4166642 58.0738731,56.4075518 58.2432773,56.3969445 L58.0868051,56.40631 C58.2871622,56.3948706 58.4869604,56.3813409 58.6861781,56.3657423 L58.2432773,56.3969445 C58.4546251,56.3837109 58.6653427,56.3681509 58.8754048,56.3502895 C59.0118117,56.3386882 59.1473564,56.3261748 59.2826203,56.3127063 L58.8754048,56.3502895 C59.070331,56.3337152 59.264693,56.3151594 59.4584703,56.2946421 L59.2826203,56.3127063 C59.461753,56.2948697 59.6403932,56.2753578 59.8185248,56.2541866 L59.4584703,56.2946421 C59.6442391,56.2749729 59.8294707,56.2535011 60.0141471,56.2302445 L59.8185248,56.2541866 C59.9851976,56.2343773 60.1514251,56.2131153 60.3171945,56.1904137 L60.0141471,56.2302445 C60.1918342,56.2078681 60.3690075,56.1838395 60.545651,56.1581746 L60.3171945,56.1904137 C60.7223692,56.1349261 61.1248066,56.0708376 61.5243167,55.9983384 C61.6192296,55.9811142 61.7138897,55.9634321 61.8083823,55.9452788 L61.5243167,55.9983384 C61.6774011,55.9705581 61.8300559,55.9415429 61.98227,55.9113034 L61.8083823,55.9452788 C61.9649184,55.915206 62.1209949,55.8838398 62.2766003,55.8511918 L61.98227,55.9113034 C62.1871974,55.8705917 62.3913263,55.8276611 62.5946307,55.7825374 L62.2766003,55.8511918 C62.42877,55.8192647 62.5804893,55.7861117 62.7317472,55.7517436 L62.5946307,55.7825374 C62.7740583,55.7427133 62.9528437,55.7011811 63.1309689,55.6579589 L62.7317472,55.7517436 C63.0854975,55.6713664 63.4367244,55.5843433 63.7852896,55.4908127 L50.7153083,42.3396226 L30.8726415,42.3396226 C31.062022,42.5886252 31.2690192,42.8278803 31.4953949,43.0556158 L44.8129623,56.4528302 L28.2264151,56.4528302 C12.6383774,56.4528302 0,43.8140578 0,28.2264151 C0,12.6378902 12.6383774,0 28.2264151,0 L56.4528302,0 C72.0399858,0 84.6792453,12.6378902 84.6792453,28.2264151 C84.6792453,41.2778717 75.8183275,52.2619842 63.7852896,55.4908127 L63.786173,55.4905756 L63.7136901,55.5099235 C63.6160291,55.5358521 63.5181603,55.5612702 63.4200869,55.5861747 L63.786173,55.4905756 C63.5687957,55.5489121 63.3503832,55.6047177 63.1309689,55.6579589 C62.9980159,55.6902182 62.8650607,55.7214528 62.7317472,55.7517436 C62.6863305,55.7620637 62.6405016,55.7723563 62.5946307,55.7825374 C62.4886083,55.8060678 62.3827139,55.8289278 62.2766003,55.8511918 C62.1788739,55.8716972 62.080664,55.891756 61.98227,55.9113034 C61.9241872,55.9228418 61.8663162,55.9341488 61.8083823,55.9452788 C61.7139924,55.9634131 61.6192372,55.9811132 61.5243167,55.9983384 C61.2000491,56.0571844 60.873764,56.1105024 60.545651,56.1581746 C60.4695153,56.1692362 60.3934033,56.1799771 60.3171945,56.1904137 C60.216262,56.2042357 60.1152878,56.2175077 60.0141471,56.2302445 C59.9491426,56.2384311 59.883868,56.2464205 59.8185248,56.2541866 C59.6985564,56.2684439 59.5786257,56.28192 59.4584703,56.2946421 C59.4002931,56.3008032 59.3414833,56.3068452 59.2826203,56.3127063 C59.1467515,56.3262321 59.0112151,56.3387418 58.8754048,56.3502895 C58.8127804,56.3556158 58.7495086,56.3607836 58.6861781,56.3657423 C58.5385984,56.3772957 58.391092,56.3876891 58.2432773,56.3969445 C58.1908116,56.4002287 58.1388272,56.4033398 58.0868051,56.40631 C57.9695219,56.4130073 57.8517866,56.419 57.7338632,56.424269 C57.6480784,56.4281034 57.5617049,56.4315723 57.4752323,56.4346519 C57.3935049,56.4375608 57.3123731,56.4401034 57.2311558,56.442303 C57.1408706,56.4447506 57.0496963,56.4467878 56.9584166,56.4483917 C56.7896648,56.4513517 56.62142,56.4528302 56.4528302,56.4528302 C56.6217092,56.4528302 56.7902421,56.4513465 56.9584166,56.4483917 L56.9575525,56.4484068 Z M56.4528302,14.1127665 L28.2264151,14.1127665 C20.4323962,14.1127665 14.1132075,20.4321527 14.1132075,28.2264151 C14.1132075,35.9270171 20.2828349,42.1885111 27.9486925,42.336503 L28.2264151,42.3391816 L56.4528302,42.3391816 C64.245967,42.3391816 70.5660377,36.0197954 70.5660377,28.2264151 C70.5660377,20.4321527 64.245967,14.1127665 56.4528302,14.1127665 Z" id="Shape" fill="#000000" fill-rule="nonzero"></path>
        </g>
    </g>
</svg>